<svg width="1126" height="542" viewBox="0 0 1126 542" fill="none" xmlns="http://www.w3.org/2000/svg">
<circle cx="150" cy="369.811" r="150" fill="#93B0BB"/>
<path d="M658.58 71.348L819.283 275.491L562.138 312.593L658.58 71.348Z" fill="#93B0BB"/>
<path d="M511 241.811L551.557 335.988L653.658 345.458L576.623 413.133L599.168 513.163L511 460.811L422.832 513.163L445.377 413.133L368.342 345.458L470.443 335.988L511 241.811Z" fill="#93B0BB"/>
<rect x="177" y="170.945" width="250" height="250" transform="rotate(-43.1399 177 170.945)" fill="#93B0BB"/>
<rect x="686" y="319.811" width="440" height="200" fill="#93B0BB"/>
<path d="M152.412 358.851C153.212 355.811 154.372 354.451 155.332 353.931V353.811H149.652V353.931C151.092 354.571 152.252 356.371 151.612 358.891L146.252 379.811L141.092 358.971C140.372 356.091 141.172 354.571 142.292 353.931V353.811H135.892V353.931C136.932 354.531 137.972 355.571 138.812 358.891L139.732 362.451L135.012 379.811L129.732 358.971C129.012 356.091 129.932 354.731 131.372 353.931V353.811H124.852V353.931C125.892 354.451 126.732 355.771 127.532 358.891L134.052 384.011H134.532L140.052 363.771L145.292 384.011H145.732L152.412 358.851ZM156.248 353.811V353.931C157.488 354.491 158.008 355.691 158.008 357.251V380.371C158.008 382.291 157.248 383.171 156.248 383.691V383.811H170.128C171.328 383.811 171.968 384.171 172.368 384.931H172.528L173.688 377.651L173.568 377.571C171.608 380.651 169.128 383.251 164.488 383.251C161.608 383.251 160.088 382.131 160.088 379.611V367.411H166.568C168.048 367.411 169.248 368.731 170.088 370.451H170.208V363.891H170.088C169.288 365.851 168.048 366.811 166.528 366.811H160.088V358.011C160.088 355.491 160.888 354.331 164.008 354.331C167.768 354.331 169.888 356.251 171.968 359.451L172.128 359.371L171.528 352.691H171.408C171.008 353.451 170.208 353.811 169.048 353.811H156.248Z" fill="#161616"/>
<path d="M493.925 404.211C500.525 404.211 506.165 399.251 506.165 388.651C506.165 379.451 501.765 373.411 493.245 373.411C491.045 373.411 489.005 373.851 486.845 374.211V374.331C488.045 374.891 488.605 376.131 488.605 377.251V400.371C488.605 401.771 488.045 402.731 486.845 403.291V403.411C488.765 403.811 491.085 404.211 493.925 404.211ZM494.605 403.411C492.045 403.411 490.685 402.011 490.685 399.651V377.611C490.685 375.291 491.845 374.131 494.405 374.131C500.325 374.131 503.565 379.891 503.565 389.531C503.565 399.531 500.325 403.411 494.605 403.411ZM508.72 388.811C508.72 397.211 512.76 404.411 518.44 404.411C524.2 404.411 528.16 397.251 528.16 388.811C528.16 380.371 524.32 373.211 518.44 373.211C512.6 373.211 508.72 380.411 508.72 388.811ZM511.32 388.811C511.32 379.451 513.68 373.811 518.44 373.811C523.28 373.811 525.56 379.411 525.56 388.811C525.56 398.171 523.12 403.811 518.44 403.811C513.84 403.811 511.32 398.171 511.32 388.811Z" fill="#161616"/>
<path d="M333.628 185.411C337.028 185.411 340.388 183.091 341.668 177.171L341.468 177.091C339.788 181.611 337.188 182.971 334.548 182.971C329.668 182.971 326.748 177.051 326.748 169.171C326.748 161.291 330.068 155.291 334.108 155.291C336.948 155.291 339.148 157.211 339.628 161.731H339.708L341.388 155.571C339.868 154.851 337.908 154.211 335.988 154.211C329.588 154.211 324.428 161.691 324.428 171.131C324.428 179.211 328.548 185.411 333.628 185.411ZM344.301 179.771C343.541 182.171 342.181 184.171 341.101 184.691V184.811H346.701V184.691C345.421 184.171 344.341 182.211 345.101 179.731L346.981 173.451H356.541L358.501 179.651C359.341 182.291 358.821 184.211 357.661 184.691V184.811H363.741V184.691C362.621 184.091 361.781 182.811 360.741 179.691L352.621 154.611H352.181L344.301 179.771ZM347.141 172.851L351.621 157.891L356.341 172.851H347.141ZM380.946 185.611V158.251C380.946 156.931 381.426 155.491 382.586 154.931V154.811H378.426V154.931C379.826 155.571 380.266 156.931 380.266 158.251V179.491L368.546 154.811H364.506V154.931C365.746 155.531 366.266 157.491 366.266 159.051V181.371C366.266 182.931 365.666 184.051 364.506 184.691V184.811H368.866V184.691C367.706 184.051 366.946 182.931 366.946 181.371V156.891L380.786 185.611H380.946Z" fill="#161616"/>
<path d="M881.497 429.771C880.737 432.171 879.377 434.171 878.297 434.691V434.811H883.897V434.691C882.617 434.171 881.537 432.211 882.297 429.731L884.177 423.451H893.737L895.697 429.651C896.537 432.291 896.017 434.211 894.857 434.691V434.811H900.937V434.691C899.817 434.091 898.977 432.811 897.937 429.691L889.817 404.611H889.377L881.497 429.771ZM884.337 422.851L888.817 407.891L893.537 422.851H884.337ZM913.021 434.811C914.181 434.811 914.981 435.171 915.301 435.931H915.421L916.101 429.251L915.941 429.171C913.941 432.291 912.101 434.291 908.701 434.291C906.181 434.291 905.541 433.131 905.541 430.611V408.251C905.541 406.331 906.341 405.451 907.341 404.931V404.811H901.701V404.931C902.701 405.451 903.461 406.331 903.461 408.251V431.371C903.461 432.931 902.941 434.131 901.701 434.691V434.811H913.021ZM928.802 434.811C929.962 434.811 930.762 435.171 931.082 435.931H931.202L931.882 429.251L931.722 429.171C929.722 432.291 927.882 434.291 924.482 434.291C921.962 434.291 921.322 433.131 921.322 430.611V408.251C921.322 406.331 922.122 405.451 923.122 404.931V404.811H917.482V404.931C918.482 405.451 919.242 406.331 919.242 408.251V431.371C919.242 432.931 918.722 434.131 917.482 434.691V434.811H928.802Z" fill="#161616"/>
<path d="M673.354 233.811V233.691C672.394 233.171 671.594 231.891 671.594 230.371V207.251C671.594 206.091 672.154 204.491 673.354 203.931V203.811H667.714V203.931C668.914 204.491 669.474 206.091 669.474 207.251V230.371C669.474 231.891 668.754 233.171 667.714 233.691V233.811H673.354ZM678.196 203.811C677.236 203.811 676.356 203.571 675.996 202.691H675.876L674.436 209.331L674.676 209.451C676.196 206.731 677.756 204.411 680.076 204.411C681.836 204.411 682.596 205.171 682.596 206.811V230.411C682.596 231.731 682.156 232.771 680.836 233.691V233.811H686.396V233.691C685.116 232.771 684.676 231.731 684.676 230.411V206.811C684.676 205.171 685.476 204.411 687.156 204.411C689.396 204.411 691.076 206.731 692.596 209.451L692.796 209.331L691.356 202.691H691.236C690.836 203.451 689.996 203.811 689.036 203.811H678.196Z" fill="#161616"/>
<circle cx="975" cy="184.811" r="125" fill="#93B0BB"/>
<path d="M938.742 158.611V180.971C938.742 182.531 938.222 183.731 936.982 184.291V184.411C939.622 184.851 942.142 185.211 944.902 185.211C951.902 185.211 955.582 181.811 955.582 176.891C955.582 171.411 950.782 168.451 946.262 167.971C950.062 167.491 953.982 165.131 953.982 160.771C953.982 156.411 949.942 154.411 944.462 154.411C941.862 154.411 939.422 154.811 936.982 155.211V155.331C938.222 155.891 938.742 157.051 938.742 158.611ZM944.942 155.011C948.782 155.011 951.662 157.451 951.662 161.331C951.662 165.291 948.902 167.691 944.022 167.691H940.822V158.211C940.822 156.131 942.302 155.011 944.942 155.011ZM940.822 181.411V168.291H944.022C949.862 168.291 953.102 171.131 953.102 176.211C953.102 181.211 950.342 184.611 945.062 184.611C942.342 184.611 940.822 183.491 940.822 181.411ZM968.81 184.811C969.97 184.811 970.77 185.171 971.09 185.931H971.21L971.89 179.251L971.73 179.171C969.73 182.291 967.89 184.291 964.49 184.291C961.97 184.291 961.33 183.131 961.33 180.611V158.251C961.33 156.331 962.13 155.451 963.13 154.931V154.811H957.49V154.931C958.49 155.451 959.25 156.331 959.25 158.251V181.371C959.25 182.931 958.73 184.131 957.49 184.691V184.811H968.81ZM975.9 175.731V158.251C975.9 156.451 976.46 155.531 977.7 154.931V154.811H972.18V154.931C973.3 155.491 973.82 156.451 973.82 158.251V175.891C973.82 181.771 977.18 185.331 981.86 185.331C986.54 185.331 989.5 181.691 989.5 175.891V159.451C989.5 157.611 990.14 155.691 991.66 154.931V154.811H986.3V154.931C988.02 155.771 988.78 157.611 988.78 159.451V175.891C988.78 181.251 986.22 184.051 982.58 184.051C978.94 184.051 975.9 180.891 975.9 175.731ZM997.619 175.731V158.251C997.619 156.451 998.179 155.531 999.419 154.931V154.811H993.899V154.931C995.019 155.491 995.539 156.451 995.539 158.251V175.891C995.539 181.771 998.899 185.331 1003.58 185.331C1008.26 185.331 1011.22 181.691 1011.22 175.891V159.451C1011.22 157.611 1011.86 155.691 1013.38 154.931V154.811H1008.02V154.931C1009.74 155.771 1010.5 157.611 1010.5 159.451V175.891C1010.5 181.251 1007.94 184.051 1004.3 184.051C1000.66 184.051 997.619 180.891 997.619 175.731ZM951.955 232.811C953.115 232.811 953.915 233.171 954.235 233.931H954.355L955.035 227.251L954.875 227.171C952.875 230.291 951.035 232.291 947.635 232.291C945.115 232.291 944.475 231.131 944.475 228.611V206.251C944.475 204.331 945.275 203.451 946.275 202.931V202.811H940.635V202.931C941.635 203.451 942.395 204.331 942.395 206.251V229.371C942.395 230.931 941.875 232.131 940.635 232.691V232.811H951.955ZM962.096 232.811V232.691C961.136 232.171 960.336 230.891 960.336 229.371V206.251C960.336 205.091 960.896 203.491 962.096 202.931V202.811H956.456V202.931C957.656 203.491 958.216 205.091 958.216 206.251V229.371C958.216 230.891 957.496 232.171 956.456 232.691V232.811H962.096ZM971.178 202.811H966.938V202.931C968.138 203.491 968.738 205.091 968.578 206.811L966.378 228.451C966.178 230.771 965.618 232.051 964.458 232.691V232.811H968.378V232.691C967.498 232.211 966.778 230.771 966.978 228.451L969.458 204.651L976.618 233.211H976.818L984.138 204.691L986.538 229.371C986.738 231.291 985.938 232.211 985.098 232.691V232.811H990.418V232.691C989.458 232.131 988.858 231.291 988.658 229.371L986.458 206.851C986.298 205.091 986.938 203.451 988.058 202.931V202.811H984.018L977.498 228.211L971.178 202.811ZM992.705 202.811V202.931C993.945 203.491 994.465 204.691 994.465 206.251V229.371C994.465 231.291 993.705 232.171 992.705 232.691V232.811H1006.58C1007.78 232.811 1008.42 233.171 1008.82 233.931H1008.98L1010.14 226.651L1010.02 226.571C1008.06 229.651 1005.58 232.251 1000.94 232.251C998.065 232.251 996.545 231.131 996.545 228.611V216.411H1003.02C1004.5 216.411 1005.7 217.731 1006.54 219.451H1006.66V212.891H1006.54C1005.74 214.851 1004.5 215.811 1002.98 215.811H996.545V207.011C996.545 204.491 997.345 203.331 1000.46 203.331C1004.22 203.331 1006.34 205.251 1008.42 208.451L1008.58 208.371L1007.98 201.691H1007.86C1007.46 202.451 1006.66 202.811 1005.5 202.811H992.705Z" fill="black"/>
</svg>
